<svg id="Layer_1" enable-background="new 0 0 512 512" height="512" viewBox="0 0 512 512" width="512" xmlns="http://www.w3.org/2000/svg"><g><g><g><g id="XMLID_891_"><g id="XMLID_996_"><g id="XMLID_997_"><g id="XMLID_1129_"><g id="XMLID_1137_"><g id="XMLID_1138_"><g id="XMLID_1139_"><g id="XMLID_1140_"><g id="XMLID_1141_"><g id="XMLID_1142_"><g id="XMLID_1143_"><g id="XMLID_1144_"><g id="XMLID_1156_"><g id="XMLID_1157_"><g><path d="m512 256.33c0 50.17-14.44 96.97-39.38 136.47h-433.24c-24.94-39.5-39.38-86.3-39.38-136.47 0-141.38 114.62-256 256-256s256 114.62 256 256z" fill="#3381fb"/></g></g></g></g></g></g></g></g></g></g></g></g></g></g></g></g></g><path d="m512 256.33c0-17.781-1.817-35.137-5.268-51.897l-54.896-54.896s-5.563-4.186-13.592-4.95l-60.925-60.905-311.617 150.414 109.218 109.564-135.54 49.14h433.24c24.94-39.5 39.38-86.3 39.38-136.47z" fill="#115ace"/><g><path d="m115.879 239.714h-33.364c-15.447 0-27.969-12.522-27.969-27.969v-45.396c0-15.447 12.522-27.969 27.969-27.969h33.365v101.334z" fill="#c3cadd"/><path d="m396.121 239.714h33.365c15.447 0 27.969-12.522 27.969-27.969v-45.396c0-15.447-12.522-27.969-27.969-27.969h-33.365z" fill="#a7afc1"/></g><path d="m472.62 392.8c-16.27 25.77-37.02 48.44-61.15 66.92-34.19 26.19-75.19 43.94-119.88 50.16l-35.59 1.79-35.59-1.79c-44.69-6.22-85.69-23.97-119.88-50.16-24.13-18.48-44.88-41.15-61.15-66.92 7.45-37.01 37.27-66.46 75.82-72.43l38.96-6.03 101.84-30.52 101.84 30.52 38.96 6.03c38.55 5.97 68.37 35.42 75.82 72.43z" fill="#e0e3ee"/><path d="m472.62 392.8c-16.27 25.77-37.02 48.44-61.15 66.92-34.19 26.19-75.19 43.94-119.88 50.16l-35.59 1.79v-227.85l101.84 30.52 38.96 6.03c38.55 5.97 68.37 35.42 75.82 72.43z" fill="#c3cadd"/><path d="m420.447 190.307c0-87.243-73.625-157.968-164.447-157.968s-164.447 70.725-164.447 157.968c0 50.298 24.474 95.102 62.605 124.032h203.684c38.13-28.93 62.605-73.734 62.605-124.032z" fill="#f5f5f7"/><path d="m420.45 190.31c0 50.3-24.48 95.1-62.61 124.03h-101.84v-282c90.82 0 164.45 70.72 164.45 157.97z" fill="#e0e3ee"/><path d="m351.347 135.918c-4.018-8.396-11.147-14.885-19.847-18.195-15.56-5.919-43.553-14.463-75.5-14.463s-59.94 8.544-75.5 14.463c-8.7 3.31-15.829 9.798-19.847 18.195-5.791 12.101-13.153 31.702-13.153 53.592 0 15.603 3.741 29.929 7.987 41.164 5.506 14.568 19.507 24.161 35.082 24.161h130.862c15.574 0 29.576-9.592 35.082-24.161 4.246-11.234 7.987-25.56 7.987-41.164 0-21.889-7.362-41.491-13.153-53.592z" fill="#726565"/><path d="m364.5 189.51c0 15.6-3.74 29.93-7.99 41.16-5.5 14.57-19.5 24.16-35.08 24.16h-65.43v-151.57c31.95 0 59.94 8.54 75.5 14.46 8.7 3.31 15.83 9.8 19.85 18.2 5.79 12.1 13.15 31.7 13.15 53.59z" fill="#514747"/><path d="m411.47 433.2v26.52c-34.19 26.19-75.19 43.94-119.88 50.16l-35.59 1.79-35.59-1.79c-44.69-6.22-85.69-23.97-119.88-50.16v-26.52c0-25.89 20.98-46.87 46.87-46.87h217.2c25.89 0 46.87 20.98 46.87 46.87z" fill="#f5f5f7"/><path d="m411.47 433.2v26.52c-34.19 26.19-75.19 43.94-119.88 50.16l-35.59 1.79v-125.34h108.6c25.89 0 46.87 20.98 46.87 46.87z" fill="#e0e3ee"/></g></svg>