<?xml version="1.0" encoding="iso-8859-1"?>
<!-- Generator: Adobe Illustrator 19.0.0, SVG Export Plug-In . SVG Version: 6.00 Build 0)  -->
<svg version="1.1" id="Capa_1" xmlns="http://www.w3.org/2000/svg" xmlns:xlink="http://www.w3.org/1999/xlink" x="0px" y="0px"
	 viewBox="0 0 480 480" style="enable-background:new 0 0 480 480;" xml:space="preserve">
<path style="fill:#63C8CD;" d="M240,8C111.87,8,8,111.87,8,240v104h72v80h168v48h224V240C472,111.87,368.13,8,240,8z M415.36,230.24
	l-41.52,9.12c-1.241,7.946-3.196,15.764-5.84,23.36l31.44,28.72c-4.197,8.575-9.094,16.789-14.64,24.56L344,303.2
	c-5.128,6.053-10.747,11.672-16.8,16.8l12.8,40.48c-7.785,5.409-15.999,10.171-24.56,14.24L286.72,344
	c-7.583,2.78-15.401,4.869-23.36,6.24l-9.12,41.52C249.52,392,244.8,392,240,392s-9.52,0-14.24-0.64l-9.12-41.52
	c-7.946-1.241-15.764-3.196-23.36-5.84l-28.72,31.44c-8.575-4.197-16.789-9.094-24.56-14.64l12.8-40.8
	c-6.053-5.128-11.672-10.747-16.8-16.8L95.2,316c-5.409-7.785-10.171-15.999-14.24-24.56l31.44-28.72
	c-2.78-7.583-4.869-15.401-6.24-23.36l-41.52-9.12C64,225.52,64,220.8,64,216s0-9.52,0.64-14.24l41.52-9.12
	c1.371-7.959,3.46-15.777,6.24-23.36l-31.44-28.72c4.069-8.561,8.831-16.775,14.24-24.56l40.8,12.8
	c5.128-6.053,10.747-11.672,16.8-16.8L140,71.2c7.785-5.409,15.999-10.171,24.56-14.24l28.72,31.44
	c7.583-2.78,15.401-4.869,23.36-6.24l9.12-41.52C230.48,40,235.2,40,240,40s9.52,0,14.24,0.64l9.12,41.52
	c7.959,1.371,15.777,3.46,23.36,6.24l28.72-31.44c8.561,4.069,16.775,8.831,24.56,14.24L327.2,112
	c6.053,5.128,11.672,10.747,16.8,16.8l40.48-12.8c5.409,7.785,10.171,15.999,14.24,24.56L368,169.28
	c2.78,7.583,4.869,15.401,6.24,23.36l41.52,9.12c0,4.72,0.64,9.44,0.64,14.24S416,225.52,415.36,230.24L415.36,230.24z"/>
<path style="fill:#F9F6ED;" d="M368,169.28l31.44-28.72c-4.197-8.575-9.094-16.789-14.64-24.56L344,128.8
	c-5.128-6.053-10.747-11.672-16.8-16.8L340,71.52c-7.785-5.409-15.999-10.171-24.56-14.24l-28.72,31.44
	c-7.583-2.78-15.401-4.869-23.36-6.24l-9.12-41.84C249.52,40,244.8,40,240,40s-9.52,0-14.24,0.64l-9.12,41.52
	c-7.959,1.371-15.777,3.46-23.36,6.24l-28.72-31.44c-8.561,4.069-16.775,8.831-24.56,14.24l12.8,40.8
	c-6.053,5.128-11.672,10.747-16.8,16.8L95.2,116c-5.409,7.785-10.171,15.999-14.24,24.56l31.44,28.72
	c-2.78,7.583-4.869,15.401-6.24,23.36l-41.52,9.12C64,206.48,64,211.2,64,216s0,9.52,0.64,14.24l41.52,9.12
	c1.371,7.959,3.46,15.777,6.24,23.36l-31.44,28.72c4.069,8.561,8.831,16.775,14.24,24.56l40.8-12.8
	c5.128,6.053,10.747,11.672,16.8,16.8L140,360.8c7.785,5.409,15.999,10.171,24.56,14.24L193.28,344
	c7.583,2.78,15.401,4.869,23.36,6.24l9.12,41.52c4.72,0,9.44,0.64,14.24,0.64s9.52,0,14.24-0.64l9.12-41.52
	c7.959-1.371,15.777-3.46,23.36-6.24l28.72,31.44c8.575-4.197,16.789-9.094,24.56-14.64L327.2,320
	c6.053-5.128,11.672-10.747,16.8-16.8l40.48,12.8c5.409-7.785,10.171-15.999,14.24-24.56L368,262.72
	c2.78-7.583,4.869-15.401,6.24-23.36l41.52-9.12c0-4.72,0.64-9.44,0.64-14.24s0-9.52-0.64-14.24l-41.52-9.12
	C372.869,184.681,370.78,176.863,368,169.28L368,169.28z M168,240c-17.673,0-32-14.327-32-32s14.327-32,32-32s32,14.327,32,32
	S185.673,240,168,240z M240,312h-48v-48h48V312z M208,120h64l-32,48L208,120z M336.8,232.72l-5.84,5.6L296,272l-34.96-33.68
	l-5.84-5.6c-9.323-8.918-9.65-23.705-0.732-33.028c0.239-0.249,0.483-0.493,0.732-0.732c9.808-9.275,25.152-9.275,34.96,0l5.84,5.6
	l5.84-5.6c9.808-9.275,25.152-9.275,34.96,0c9.323,8.918,9.65,23.705,0.732,33.028C337.293,232.237,337.049,232.481,336.8,232.72z"
	/>
<path style="fill:#EF9F35;" d="M208,120l32,48l32-48H208z"/>
<circle style="fill:#F7D04F;" cx="168" cy="208" r="32"/>
<path style="fill:#63C8CD;" d="M192,264h48v48h-48V264z"/>
<path style="fill:#1895AA;" d="M301.84,198.96l-5.84,5.6l-5.84-5.6c-9.808-9.275-25.152-9.275-34.96,0
	c-9.323,8.918-9.65,23.705-0.732,33.028c0.239,0.249,0.483,0.493,0.732,0.732l5.84,5.6L296,272l34.96-33.68l5.84-5.6
	c9.323-8.918,9.65-23.705,0.732-33.028c-0.239-0.249-0.483-0.493-0.732-0.732C326.992,189.685,311.648,189.685,301.84,198.96z"/>
<g>
	<path style="fill:#3C3C48;" d="M240,0C107.452,0,0,107.452,0,240v104c0,4.418,3.582,8,8,8h64v72c0,4.418,3.582,8,8,8h160v40
		c0,4.418,3.582,8,8,8h224c4.418,0,8-3.582,8-8V240C480,107.452,372.548,0,240,0z M464,464H256v-40c0-4.418-3.582-8-8-8H88v-72
		c0-4.418-3.582-8-8-8H16v-96C16,116.288,116.288,16,240,16s224,100.288,224,224V464z"/>
	<path style="fill:#3C3C48;" d="M233.36,172.4c2.464,3.667,7.435,4.642,11.102,2.178c0.86-0.578,1.6-1.318,2.178-2.178l32-48
		c1.555-2.403,1.707-5.454,0.4-8c-1.342-2.665-4.056-4.361-7.04-4.4h-64c-2.949,0.008-5.654,1.637-7.04,4.24
		c-1.307,2.546-1.155,5.597,0.4,8L233.36,172.4z M257.36,128L240,153.6L222.96,128H257.36z"/>
	<path style="fill:#3C3C48;" d="M208,208c0-22.091-17.909-40-40-40s-40,17.909-40,40s17.909,40,40,40S208,230.091,208,208z M168,232
		c-13.255,0-24-10.745-24-24s10.745-24,24-24s24,10.745,24,24S181.255,232,168,232z"/>
	<path style="fill:#3C3C48;" d="M240,256h-48c-4.418,0-8,3.582-8,8v48c0,4.418,3.582,8,8,8h48c4.418,0,8-3.582,8-8v-48
		C248,259.582,244.418,256,240,256z M232,304h-32v-32h32V304z"/>
	<path style="fill:#3C3C48;" d="M382.4,108.32L346.96,120c-3.338-3.672-6.863-7.17-10.56-10.48l11.28-35.44
		c1.074-3.372-0.195-7.048-3.12-9.04c-8.143-5.647-16.731-10.623-25.68-14.88c-3.184-1.517-6.987-0.77-9.36,1.84L284.4,79.52
		c-4.72-1.52-9.52-2.8-14.32-3.84l-8-36.4c-0.765-3.438-3.688-5.972-7.2-6.24c-9.9-0.88-19.86-0.88-29.76,0
		c-3.512,0.268-6.435,2.802-7.2,6.24l-8,36.4c-4.8,1.04-9.6,2.32-14.32,3.84L170.48,51.6c-2.373-2.61-6.176-3.357-9.36-1.84
		c-8.965,4.226-17.555,9.204-25.68,14.88c-2.89,1.981-4.154,5.612-3.12,8.96L144,109.04c-3.819,3.457-7.451,7.116-10.88,10.96
		l-35.44-11.28c-3.372-1.074-7.048,0.195-9.04,3.12c-5.647,8.143-10.623,16.731-14.88,25.68c-1.517,3.184-0.77,6.987,1.84,9.36
		L103.12,172c-1.52,4.72-2.8,9.52-3.84,14.32l-36.4,8c-3.438,0.765-5.972,3.688-6.24,7.2C56,206.56,56,211.44,56,216
		s0,9.44,0.64,14.88c0.268,3.512,2.802,6.435,6.24,7.2l36.4,8c1.04,4.8,2.32,9.6,3.84,14.32L75.6,285.52
		c-2.61,2.373-3.357,6.176-1.84,9.36c4.226,8.965,9.204,17.555,14.88,25.68c1.981,2.89,5.612,4.154,8.96,3.12l35.44-11.28
		c3.468,3.682,7.126,7.18,10.96,10.48l-11.28,35.44c-1.074,3.372,0.195,7.048,3.12,9.04c8.143,5.647,16.731,10.623,25.68,14.88
		c3.184,1.517,6.987,0.77,9.36-1.84L196,352.88c4.72,1.52,9.52,2.8,14.32,3.84l8,36.4c0.765,3.438,3.688,5.972,7.2,6.24
		c5.44,0,10.32,0.64,14.88,0.64s9.44,0,14.88-0.64c3.512-0.268,6.435-2.802,7.2-6.24l8-36.4c4.8-1.04,9.6-2.32,14.32-3.84
		l25.12,27.52c2.373,2.61,6.176,3.357,9.36,1.84c8.965-4.226,17.555-9.204,25.68-14.88c2.89-1.981,4.154-5.612,3.12-8.96
		l-11.28-35.44c3.672-3.338,7.17-6.863,10.48-10.56l35.44,11.28c3.372,1.074,7.048-0.195,9.04-3.12
		c5.647-8.143,10.623-16.731,14.88-25.68c1.517-3.184,0.77-6.987-1.84-9.36l-27.52-25.12c1.52-4.72,2.8-9.52,3.84-14.32l36.4-8
		c3.438-0.765,5.972-3.688,6.24-7.2c0-5.44,0.64-10.32,0.64-14.88s0-9.44-0.64-14.88c-0.268-3.512-2.802-6.435-6.24-7.2l-36.4-8
		c-1.04-4.8-2.32-9.6-3.84-14.32l27.52-25.12c2.61-2.373,3.357-6.176,1.84-9.36c-4.226-8.965-9.204-17.555-14.88-25.68
		C389.729,108.371,385.866,107.083,382.4,108.32L382.4,108.32z M362.16,163.36c-2.405,2.176-3.258,5.588-2.16,8.64
		c2.634,7.14,4.615,14.503,5.92,22c0.572,3.182,3.002,5.707,6.16,6.4L408,208v8c0,0,0,5.04,0,8l-35.6,8
		c-3.158,0.693-5.588,3.218-6.16,6.4c-1.432,7.372-3.52,14.6-6.24,21.6c-1.117,3.036-0.296,6.445,2.08,8.64l27.04,24.64
		c-2.4,4.56-4.96,8.96-8,13.28l-34.72-11.04c-3.108-0.968-6.493,0.044-8.56,2.56c-4.827,5.817-10.183,11.173-16,16
		c-2.516,2.067-3.528,5.452-2.56,8.56l11.04,34.72c-4.32,2.8-8.72,5.36-13.28,8l-24.64-27.04c-2.096-2.364-5.388-3.273-8.4-2.32
		c-7.151,2.597-14.511,4.577-22,5.92c-3.182,0.572-5.707,3.002-6.4,6.16L248,384c-5.328,0.34-10.672,0.34-16,0l-8-35.6
		c-0.693-3.158-3.218-5.588-6.4-6.16c-7.363-1.469-14.588-3.556-21.6-6.24c-3.036-1.117-6.445-0.296-8.64,2.08l-24.64,27.04
		c-4.56-2.4-8.96-4.96-13.28-8l11.04-34.72c0.968-3.108-0.044-6.493-2.56-8.56c-5.817-4.827-11.173-10.183-16-16
		c-2.067-2.516-5.452-3.528-8.56-2.56l-34.72,11.04c-2.8-4.32-5.36-8.72-8-13.28l27.04-24.64c2.364-2.096,3.273-5.388,2.32-8.4
		c-2.597-7.151-4.577-14.511-5.92-22c-0.572-3.182-3.002-5.707-6.16-6.4L72,224c0-2.72,0-5.28,0-8s0-5.04,0-8l35.6-8
		c3.158-0.693,5.588-3.218,6.16-6.4c1.469-7.363,3.556-14.588,6.24-21.6c1.117-3.036,0.296-6.445-2.08-8.64l-27.04-24.64
		c2.4-4.56,4.96-8.96,8-13.28l34.72,11.04c3.108,0.968,6.493-0.044,8.56-2.56c4.827-5.817,10.183-11.173,16-16
		c2.516-2.067,3.528-5.452,2.56-8.56l-11.04-34.72c4.32-2.8,8.72-5.36,13.28-8l24.64,27.04c2.096,2.364,5.388,3.273,8.4,2.32
		c7.151-2.597,14.511-4.577,22-5.92c3.182-0.572,5.707-3.002,6.4-6.16L232,48c5.328-0.34,10.672-0.34,16,0l8,35.6
		c0.693,3.158,3.218,5.588,6.4,6.16c7.363,1.469,14.588,3.556,21.6,6.24c3.036,1.117,6.445,0.296,8.64-2.08l24.64-27.04
		c4.56,2.4,8.96,4.96,13.28,8l-11.04,34.72c-0.968,3.108,0.044,6.493,2.56,8.56c5.817,4.827,11.173,10.183,16,16
		c2.067,2.516,5.452,3.528,8.56,2.56l34.72-11.04c2.8,4.32,5.36,8.72,8,13.28L362.16,163.36z"/>
	<path style="fill:#3C3C48;" d="M296,193.2c-12.925-12.231-33.155-12.231-46.08,0c-6.307,5.908-9.896,14.158-9.92,22.8
		c-0.01,8.531,3.49,16.69,9.68,22.56l40.8,39.36c3.09,2.946,7.95,2.946,11.04,0l40.8-39.36c6.19-5.87,9.69-14.029,9.68-22.56
		c-0.005-8.551-3.502-16.729-9.68-22.64C329.406,180.932,309,180.861,296,193.2L296,193.2z M330.96,226.96L296,260.88l-35.2-33.92
		c-6.141-5.788-6.428-15.458-0.64-21.6c0.207-0.22,0.421-0.433,0.64-0.64c6.728-6.38,17.272-6.38,24,0l5.84,5.6
		c3.09,2.946,7.95,2.946,11.04,0l5.84-5.6c6.712-6.42,17.288-6.42,24,0c6.141,5.788,6.428,15.458,0.64,21.6
		c-0.207,0.22-0.421,0.433-0.64,0.64L330.96,226.96z"/>
	<path style="fill:#3C3C48;" d="M432,432h16v16h-16V432z"/>
	<path style="fill:#3C3C48;" d="M432,400h16v16h-16V400z"/>
	<path style="fill:#3C3C48;" d="M432,368h16v16h-16V368z"/>
</g>
<g>
</g>
<g>
</g>
<g>
</g>
<g>
</g>
<g>
</g>
<g>
</g>
<g>
</g>
<g>
</g>
<g>
</g>
<g>
</g>
<g>
</g>
<g>
</g>
<g>
</g>
<g>
</g>
<g>
</g>
</svg>
